<mxfile host="app.diagrams.net" modified="2021-10-07T18:31:24.255Z" agent="5.0 (Macintosh; Intel Mac OS X 10_15_7) AppleWebKit/537.36 (KHTML, like Gecko) Chrome/94.0.4606.71 Safari/537.36" etag="ahUWz8VzcdiZyzXByoW9" version="15.4.3" type="github">
  <diagram id="BXUGpB7IPIsK3UPHQTtu" name="Page-1">
    <mxGraphModel dx="1186" dy="545" grid="1" gridSize="10" guides="1" tooltips="1" connect="1" arrows="1" fold="1" page="1" pageScale="1" pageWidth="827" pageHeight="1169" math="0" shadow="0">
      <root>
        <mxCell id="0" />
        <mxCell id="1" parent="0" />
        <mxCell id="3Nz2NOcUMkj-4oV6_TOx-1" value="" style="shape=image;verticalLabelPosition=bottom;labelBackgroundColor=#ffffff;verticalAlign=top;aspect=fixed;imageAspect=0;image=https://i1.wp.com/jcole.us/blog/files/innodb/20130103/50dpi/Space_File_Overview.png;" vertex="1" parent="1">
          <mxGeometry x="30" y="60" width="455" height="381" as="geometry" />
        </mxCell>
        <mxCell id="3Nz2NOcUMkj-4oV6_TOx-2" value="" style="shape=image;verticalLabelPosition=bottom;labelBackgroundColor=#ffffff;verticalAlign=top;aspect=fixed;imageAspect=0;image=https://i0.wp.com/jcole.us/blog/files/innodb/20130104/50dpi/FSP_HDR_Page_Overview.png;" vertex="1" parent="1">
          <mxGeometry x="650" y="60" width="465" height="374" as="geometry" />
        </mxCell>
        <mxCell id="3Nz2NOcUMkj-4oV6_TOx-6" value="" style="curved=1;endArrow=classic;html=1;rounded=0;edgeStyle=orthogonalEdgeStyle;entryX=0;entryY=0.5;entryDx=0;entryDy=0;" edge="1" parent="1" source="3Nz2NOcUMkj-4oV6_TOx-1" target="3Nz2NOcUMkj-4oV6_TOx-2">
          <mxGeometry width="50" height="50" relative="1" as="geometry">
            <mxPoint x="390" y="350" as="sourcePoint" />
            <mxPoint x="440" y="300" as="targetPoint" />
            <Array as="points">
              <mxPoint x="629" y="230" />
              <mxPoint x="629" y="247" />
            </Array>
          </mxGeometry>
        </mxCell>
        <mxCell id="3Nz2NOcUMkj-4oV6_TOx-7" value="" style="shape=image;verticalLabelPosition=bottom;labelBackgroundColor=#ffffff;verticalAlign=top;aspect=fixed;imageAspect=0;image=https://i2.wp.com/jcole.us/blog/files/innodb/20130104/50dpi/XDES_Entry.png;" vertex="1" parent="1">
          <mxGeometry x="670" y="487" width="470" height="196" as="geometry" />
        </mxCell>
        <mxCell id="3Nz2NOcUMkj-4oV6_TOx-10" value="" style="shape=image;verticalLabelPosition=bottom;labelBackgroundColor=#ffffff;verticalAlign=top;aspect=fixed;imageAspect=0;image=https://i1.wp.com/jcole.us/blog/files/innodb/20130104/50dpi/List_Base_Nodes.png;" vertex="1" parent="1">
          <mxGeometry x="700" y="720" width="470" height="201" as="geometry" />
        </mxCell>
        <mxCell id="3Nz2NOcUMkj-4oV6_TOx-11" value="" style="shape=image;verticalLabelPosition=bottom;labelBackgroundColor=#ffffff;verticalAlign=top;aspect=fixed;imageAspect=0;image=https://i2.wp.com/jcole.us/blog/files/innodb/20130104/50dpi/List_Nodes.png;" vertex="1" parent="1">
          <mxGeometry x="700" y="960" width="470" height="181" as="geometry" />
        </mxCell>
        <mxCell id="3Nz2NOcUMkj-4oV6_TOx-12" value="" style="shape=image;verticalLabelPosition=bottom;labelBackgroundColor=#ffffff;verticalAlign=top;aspect=fixed;imageAspect=0;image=https://i0.wp.com/jcole.us/blog/files/innodb/20130104/50dpi/FSP_Header.png;" vertex="1" parent="1">
          <mxGeometry x="50" y="500" width="475" height="330" as="geometry" />
        </mxCell>
        <mxCell id="3Nz2NOcUMkj-4oV6_TOx-13" value="" style="edgeStyle=orthogonalEdgeStyle;rounded=0;orthogonalLoop=1;jettySize=auto;html=1;" edge="1" parent="1" source="3Nz2NOcUMkj-4oV6_TOx-2" target="3Nz2NOcUMkj-4oV6_TOx-7">
          <mxGeometry relative="1" as="geometry" />
        </mxCell>
      </root>
    </mxGraphModel>
  </diagram>
</mxfile>
